<?xml version="1.0" encoding="iso-8859-1"?>
<!-- Generator: Adobe Illustrator 19.1.0, SVG Export Plug-In . SVG Version: 6.00 Build 0)  -->
<svg xmlns="http://www.w3.org/2000/svg" xmlns:xlink="http://www.w3.org/1999/xlink" version="1.1" id="Capa_1" x="0px" y="0px" viewBox="0 0 62.938 62.938" style="enable-background:new 0 0 62.938 62.938;" xml:space="preserve" width="512px" height="512px">
<g>
	<g id="group-28svg">
		<path id="path-1_19_" d="M48.743,38.938H14.197c-5.193,0-9.416-4.213-9.416-9.393c0-5.005,3.933-9.109,8.875-9.39    c-0.159-0.689-0.24-1.395-0.24-2.105c0-4.939,3.824-9.002,8.666-9.385C22.467,3.822,26.531,0,31.47,0    c4.94,0,9.003,3.823,9.387,8.666c4.843,0.383,8.666,4.447,8.666,9.387c0,0.713-0.081,1.423-0.24,2.113    c4.941,0.281,8.876,4.38,8.876,9.379C58.159,34.725,53.935,38.938,48.743,38.938z M14.197,23.14c-3.538,0-6.416,2.873-6.416,6.405    c0,3.525,2.878,6.393,6.416,6.393h34.546c3.538,0,6.415-2.868,6.415-6.393c0-3.526-2.877-6.394-6.415-6.394    c-0.448,0-0.907,0.05-1.363,0.149c-0.57,0.123-1.166-0.097-1.518-0.567c-0.351-0.469-0.397-1.101-0.117-1.616    c0.509-0.935,0.778-1.995,0.778-3.064c0-3.538-2.879-6.417-6.417-6.417c-0.208,0-0.412,0.012-0.615,0.032    c-0.44,0.041-0.886-0.116-1.203-0.432c-0.316-0.316-0.475-0.756-0.433-1.201c0.018-0.204,0.031-0.41,0.031-0.619    C37.886,5.878,35.008,3,31.47,3s-6.417,2.878-6.417,6.416c0,0.208,0.013,0.414,0.031,0.618c0.042,0.445-0.117,0.885-0.433,1.201    c-0.316,0.317-0.753,0.475-1.202,0.432c-0.204-0.02-0.408-0.032-0.616-0.032c-3.538,0-6.417,2.878-6.417,6.415    c0,1.083,0.262,2.113,0.778,3.061c0.28,0.515,0.234,1.147-0.118,1.617c-0.35,0.469-0.943,0.69-1.517,0.566    C15.078,23.19,14.633,23.14,14.197,23.14z" fill="#05617d"/>
		<path id="path-2_19_" d="M31.65,18.833c-5.193,0-9.417-4.224-9.417-9.416S26.457,0,31.65,0c5.192,0,9.416,4.225,9.416,9.417    S36.842,18.833,31.65,18.833z M31.65,3c-3.538,0-6.417,2.878-6.417,6.417c0,3.538,2.879,6.416,6.417,6.416    s6.416-2.878,6.416-6.416C38.066,5.878,35.188,3,31.65,3z" fill="#05617d"/>
		<path id="path-3_19_" d="M50.062,62.938H12.877c-0.635,0-1.202-0.4-1.414-0.999l-7.886-22.26c-0.3-0.839-0.143-1.854,0.412-2.643    c0.491-0.698,1.22-1.098,2.003-1.098h50.957c0.782,0,1.512,0.401,2.002,1.099c0.556,0.79,0.711,1.805,0.408,2.649l-7.883,22.253    C51.264,62.538,50.698,62.938,50.062,62.938z M13.937,59.938h35.065l7.439-21H6.498L13.937,59.938z" fill="#05617d"/>
		<path id="path-4_17_" d="M34.078,10.917c-0.729,0-1.369-0.533-1.481-1.276c-0.164-1.087-1.053-1.303-1.321-1.344    c-0.81-0.121-1.386-0.871-1.279-1.682c0.108-0.811,0.827-1.387,1.643-1.295c1.176,0.134,3.508,1.116,3.924,3.873    c0.123,0.819-0.441,1.583-1.26,1.707C34.229,10.912,34.153,10.917,34.078,10.917z" fill="#05617d"/>
		<path id="path-5_13_" d="M44.748,34.7c-3.359,0-6.991-0.885-8.04-1.16c-0.8-0.21-1.28-1.03-1.07-1.831    c0.21-0.801,1.036-1.279,1.831-1.071c4.214,1.103,9.475,1.526,10.588,0.397c0.399-0.404,0.371-0.647,0.36-0.738    c-0.077-0.661-1.056-1.56-1.694-1.959c-0.7-0.439-0.917-1.362-0.482-2.064c0.437-0.702,1.358-0.921,2.059-0.488    c0.287,0.177,2.813,1.794,3.096,4.15c0.097,0.809-0.032,2.022-1.204,3.207C49.029,34.32,46.947,34.699,44.748,34.7z" fill="#05617d"/>
	</g>
</g>
<g>
</g>
<g>
</g>
<g>
</g>
<g>
</g>
<g>
</g>
<g>
</g>
<g>
</g>
<g>
</g>
<g>
</g>
<g>
</g>
<g>
</g>
<g>
</g>
<g>
</g>
<g>
</g>
<g>
</g>
</svg>
